<svg xmlns="http://www.w3.org/2000/svg" width="401.74" height="488.232" version="1.0"><g style="fill:#000;fill-opacity:1;fill-rule:nonzero;stroke:none;stroke-miterlimit:4"><path d="M86.068 0C61.466 0 56.851 35.041 70.691 35.041 84.529 35.041 110.671 0 86.068 0M45.217 30.699c7.369.45 15.454-28.122 1.604-26.325-13.845 1.797-8.976 25.875-1.604 26.325M11.445 48.453c5.241-2.307.675-24.872-8.237-18.718-8.908 6.155 2.996 21.024 8.237 18.718M26.212 36.642c6.239-1.272 6.581-26.864-4.545-22.273-11.128 4.592-1.689 23.547 4.545 22.273" style="fill:#000;fill-opacity:1" transform="translate(37.116 17.709)scale(2.9149)"/><path d="M28.163 58.269q3.109 0 5.572 1.642 2.464 1.584 3.696 4.399l29.327 66.397q1.056 2.17 3.637 2.17h19.532q2.053 0 3.52 1.408 1.466 1.408 1.466 3.402 0 1.936-1.467 3.344-1.466 1.407-3.519 1.407H67.873q-3.344 0-5.573-1.407-2.228-1.467-3.636-4.634L29.219 70q-.528-1.115-1.408-1.643-.82-.528-1.994-.528H6.227q-2.112 0-3.579-1.349-1.407-1.408-1.407-3.46 0-1.995 1.407-3.344 1.467-1.407 3.578-1.407zm61.764 0q2.112 0 3.52 1.349t1.407 3.343q0 2.053-1.408 3.402t-3.519 1.349H61.479q-2.111 0-3.519-1.35-1.408-1.348-1.408-3.401 0-1.994 1.408-3.343 1.408-1.35 3.52-1.35z" aria-label="⌥" style="font-size:65.8685px;font-family:&quot;System Font&quot;;-inkscape-font-specification:&quot;System Font&quot;;stroke-width:.625654" transform="translate(37.116 17.709)scale(2.9149)"/></g></svg>
